<svg width="25" height="25" viewBox="0 0 25 25" fill="none" xmlns="http://www.w3.org/2000/svg">
<path d="M16.1459 14.5833H15.323L15.0313 14.3021C15.6823 13.5458 16.1581 12.655 16.4246 11.6934C16.6911 10.7317 16.7418 9.72308 16.573 8.73959C16.0834 5.84375 13.6667 3.53125 10.75 3.17709C9.72463 3.04736 8.68315 3.15393 7.70527 3.48864C6.72739 3.82334 5.83904 4.37732 5.10819 5.10816C4.37735 5.83901 3.82337 6.72736 3.48867 7.70524C3.15396 8.68312 3.04739 9.7246 3.17712 10.75C3.53128 13.6667 5.84379 16.0833 8.73962 16.5729C9.72311 16.7417 10.7318 16.6911 11.6934 16.4245C12.655 16.158 13.5458 15.6822 14.3021 15.0313L14.5834 15.3229V16.1458L19.0105 20.5729C19.4375 21 20.1355 21 20.5625 20.5729C20.9896 20.1458 20.9896 19.4479 20.5625 19.0208L16.1459 14.5833ZM9.89587 14.5833C7.30212 14.5833 5.20837 12.4896 5.20837 9.89584C5.20837 7.30209 7.30212 5.20834 9.89587 5.20834C12.4896 5.20834 14.5834 7.30209 14.5834 9.89584C14.5834 12.4896 12.4896 14.5833 9.89587 14.5833Z" fill="#818181"/>
</svg>
