<svg width="17" height="17" viewBox="0 0 17 17" fill="none" xmlns="http://www.w3.org/2000/svg">
<path fill-rule="evenodd" clip-rule="evenodd" d="M0 8.49996C0 3.80543 3.80543 0 8.49996 0C13.1945 0 16.9999 3.80543 16.9999 8.49996C16.9999 13.1945 13.1945 16.9999 8.49996 16.9999C3.80543 16.9999 0 13.1945 0 8.49996ZM8.49996 1.69999C6.69649 1.69999 4.9669 2.41641 3.69166 3.69166C2.41641 4.9669 1.69999 6.69649 1.69999 8.49996C1.69999 10.3034 2.41641 12.033 3.69166 13.3083C4.9669 14.5835 6.69649 15.2999 8.49996 15.2999C10.3034 15.2999 12.033 14.5835 13.3083 13.3083C14.5835 12.033 15.2999 10.3034 15.2999 8.49996C15.2999 6.69649 14.5835 4.9669 13.3083 3.69166C12.033 2.41641 10.3034 1.69999 8.49996 1.69999Z" fill="#570059"/>
<path fill-rule="evenodd" clip-rule="evenodd" d="M9.34987 4.24998C9.34987 4.02455 9.26032 3.80835 9.10091 3.64894C8.94151 3.48954 8.72531 3.39999 8.49988 3.39999C8.27444 3.39999 8.05824 3.48954 7.89884 3.64894C7.73943 3.80835 7.64988 4.02455 7.64988 4.24998V7.64997H4.2499C4.02446 7.64997 3.80826 7.73952 3.64886 7.89892C3.48945 8.05833 3.3999 8.27453 3.3999 8.49996C3.3999 8.72539 3.48945 8.94159 3.64886 9.101C3.80826 9.2604 4.02446 9.34996 4.2499 9.34996H7.64988V12.7499C7.64988 12.9754 7.73943 13.1916 7.89884 13.351C8.05824 13.5104 8.27444 13.5999 8.49988 13.5999C8.72531 13.5999 8.94151 13.5104 9.10091 13.351C9.26032 13.1916 9.34987 12.9754 9.34987 12.7499V9.34996H12.7499C12.9753 9.34996 13.1915 9.2604 13.3509 9.101C13.5103 8.94159 13.5999 8.72539 13.5999 8.49996C13.5999 8.27453 13.5103 8.05833 13.3509 7.89892C13.1915 7.73952 12.9753 7.64997 12.7499 7.64997H9.34987V4.24998Z" fill="#570059"/>
</svg>
