<svg width="27" height="27" viewBox="0 0 27 27" fill="none" xmlns="http://www.w3.org/2000/svg">
<path d="M7.81687 20.25C7.31437 20.25 6.88575 20.073 6.531 19.719C6.177 19.365 6 18.9364 6 18.4331V8.56688C6 8.06438 6.177 7.63575 6.531 7.281C6.885 6.927 7.31362 6.75 7.81687 6.75H9.375V4.5C9.375 3.24675 9.8115 2.18325 10.6845 1.3095C11.5575 0.435751 12.621 -0.000749035 13.875 9.64837e-07C15.1283 9.64837e-07 16.1918 0.436501 17.0655 1.3095C17.9393 2.1825 18.3757 3.246 18.375 4.5V6.75H19.9331C20.4356 6.75 20.8643 6.927 21.219 7.281C21.573 7.635 21.75 8.06363 21.75 8.56688V18.4331C21.75 18.9356 21.573 19.3643 21.219 19.719C20.865 20.073 20.4364 20.25 19.9331 20.25H7.81687ZM7.81687 19.125H19.9331C20.1349 19.125 20.3006 19.0601 20.4304 18.9304C20.5601 18.8006 20.625 18.6349 20.625 18.4331V8.56688C20.625 8.36513 20.5601 8.19938 20.4304 8.06963C20.3006 7.93988 20.1349 7.875 19.9331 7.875H7.81687C7.61512 7.875 7.44937 7.93988 7.31962 8.06963C7.18987 8.19938 7.125 8.36513 7.125 8.56688V18.4331C7.125 18.6349 7.18987 18.8006 7.31962 18.9304C7.44937 19.0601 7.61512 19.125 7.81687 19.125ZM13.875 15.1875C14.3497 15.1875 14.7495 15.0248 15.0743 14.6993C15.3997 14.3745 15.5625 13.9748 15.5625 13.5C15.5625 13.0253 15.3997 12.6255 15.0743 12.3008C14.7495 11.9753 14.3497 11.8125 13.875 11.8125C13.4002 11.8125 13.0005 11.9753 12.6757 12.3008C12.3503 12.6255 12.1875 13.0253 12.1875 13.5C12.1875 13.9748 12.3503 14.3745 12.6757 14.6993C13.0005 15.0248 13.4002 15.1875 13.875 15.1875ZM10.5 6.75H17.25V4.5C17.25 3.5625 16.9219 2.76563 16.2656 2.10938C15.6094 1.45313 14.8125 1.125 13.875 1.125C12.9375 1.125 12.1406 1.45313 11.4844 2.10938C10.8281 2.76563 10.5 3.5625 10.5 4.5V6.75Z" fill="white"/>
</svg>
