<svg width="27" height="27" viewBox="0 0 27 27" fill="none" xmlns="http://www.w3.org/2000/svg">
<path d="M21.375 4.5H5.625C4.72989 4.5 3.87145 4.85558 3.23851 5.48851C2.60558 6.12145 2.25 6.97989 2.25 7.875V19.125C2.25 20.0201 2.60558 20.8786 3.23851 21.5115C3.87145 22.1444 4.72989 22.5 5.625 22.5H21.375C22.2701 22.5 23.1286 22.1444 23.7615 21.5115C24.3944 20.8786 24.75 20.0201 24.75 19.125V7.875C24.75 6.97989 24.3944 6.12145 23.7615 5.48851C23.1286 4.85558 22.2701 4.5 21.375 4.5ZM20.6213 6.75L13.5 12.0938L6.37875 6.75H20.6213ZM21.375 20.25H5.625C5.32663 20.25 5.04048 20.1315 4.8295 19.9205C4.61853 19.7095 4.5 19.4234 4.5 19.125V8.15625L12.825 14.4C13.0197 14.5461 13.2566 14.625 13.5 14.625C13.7434 14.625 13.9803 14.5461 14.175 14.4L22.5 8.15625V19.125C22.5 19.4234 22.3815 19.7095 22.1705 19.9205C21.9595 20.1315 21.6734 20.25 21.375 20.25Z" fill="white"/>
</svg>
